<svg version="1.1" xmlns="http://www.w3.org/2000/svg" xmlns:xlink="http://www.w3.org/1999/xlink" width="301.84003" height="124.39833" viewBox="0,0,301.84003,124.39833"><g transform="translate(-97.82998,-117.80083)"><g data-paper-data="{&quot;isPaintingLayer&quot;:true}" fill-rule="nonzero" stroke-linejoin="miter" stroke-miterlimit="10" stroke-dasharray="" stroke-dashoffset="0" style="mix-blend-mode: normal"><path d="M97.82998,242.19917v-104.98606c0,0 35.71818,-16.1729 76.92973,-19.1247c13.37187,-0.95777 32.97274,0.46917 58.20739,4.39656c12.59732,1.96058 31.15962,12.09139 60.31377,14.58697c26.80089,2.29414 50.91679,-3.78543 72.54672,-8.5243c16.0244,-3.51076 33.84243,-5.83453 33.84243,-5.83453v119.48606z" fill="#c70000" stroke="none" stroke-width="0" stroke-linecap="butt"/><path d="M186.65773,155.2491c0,0 -0.67866,4.29473 2.40232,6.7872c3.28793,2.65989 6.92409,4.79923 7.90728,5.90755c4.35435,4.90856 6.72486,10.43652 7.5148,13.80434c0.46711,1.99149 -0.14007,7.37204 -2.0591,13.23905c-1.65371,5.05585 -4.57101,10.73121 -5.21598,11.87774c-2.41457,4.29229 -5.27194,6.75087 -5.27194,6.75087c0,0 1.98097,-3.25673 3.23442,-7.26473c1.12598,-3.60041 1.52014,-7.90387 1.80516,-9.3635c0.35706,-1.82864 1.41522,-6.30613 0.39496,-10.54343c-1.00568,-4.17674 -3.33435,-8.62179 -3.80949,-9.56479c-1.73311,-3.43967 -6.87237,-8.41504 -6.87237,-8.41504z" data-paper-data="{&quot;index&quot;:null}" fill="#ffffff" stroke="#000000" stroke-width="0" stroke-linecap="round"/><path d="M186.91294,209.99459c0,6.75153 -3.19314,9.9145 -7.93091,12.35581c-4.25376,2.1919 -9.70354,3.9987 -16.03032,3.9987c-5.48848,0 -10.88945,-0.8927 -15.05131,-2.53207c-5.97912,-2.35519 -9.6706,-6.52126 -9.6706,-14.07598c0,-3.36038 2.06732,-7.79517 5.5743,-10.72417c2.66728,-2.22767 5.92919,-3.95052 9.54426,-5.06762c2.03007,-0.62731 4.30535,-0.92978 6.32289,-1.34967c3.80411,-0.79169 7.34762,-0.08502 10.97843,1.34135c3.69745,1.45256 4.42051,2.76263 4.42051,2.76263l-0.49458,-42.5755l12.15725,0.38898c0,0 0.18011,49.83086 0.18011,55.47755z" fill="#ffffff" stroke="#000000" stroke-width="0" stroke-linecap="butt"/><text transform="translate(206.9622,155.321) scale(0.38301,0.38301)" font-size="40" xml:space="preserve" fill="#000000" fill-rule="nonzero" stroke="none" stroke-width="1" stroke-linecap="butt" stroke-linejoin="miter" stroke-miterlimit="10" stroke-dasharray="" stroke-dashoffset="0" font-family="Handwriting" font-weight="normal" text-anchor="start" style="mix-blend-mode: normal"><tspan x="0" dy="0">Key Feature</tspan></text><path d="M139.22564,213.63836c0,0 3.21225,3.49912 7.84232,5.96647c2.84681,1.51705 6.59432,2.27935 9.38003,2.67909c2.60866,0.37434 7.41763,1.16792 11.74516,0.78087c7.63571,-0.68293 15.01177,-2.97613 15.01177,-2.97613c0,0 -5.02346,2.49015 -11.04239,4.30703c-4.97049,1.5004 -12.20296,1.40537 -14.80251,1.01846c-2.61201,-0.38876 -9.68514,-2.05277 -12.33098,-3.9703c-5.14192,-3.72652 -5.8034,-7.80549 -5.8034,-7.80549z" fill="#afd8ff" stroke="none" stroke-width="0" stroke-linecap="butt"/><path d="M174.36986,162.11486l-0.35997,-3.77971h14.03893l-0.35997,2.09984c0,0 -4.50945,0.47636 -6.83108,0.6135c-1.38084,0.08157 -3.42212,0.48733 -4.91674,0.81977c-1.1187,0.24883 -1.57117,0.2466 -1.57117,0.2466z" fill="#a6cdf1" stroke="none" stroke-width="0" stroke-linecap="butt"/><path d="M194.54179,156.14844c0,1.94313 -6.43213,3.51834 -14.36656,3.51834c-7.93443,0 -14.36656,-1.57522 -14.36656,-3.51834c0,-1.94313 6.43213,-3.51834 14.36656,-3.51834c7.93443,0 14.36656,1.57522 14.36656,3.51834z" fill="#2b2b2b" stroke="none" stroke-width="0" stroke-linecap="butt"/><text transform="translate(207.8801,167.68191) scale(0.1494,0.1494)" font-size="40" xml:space="preserve" data-paper-data="{&quot;index&quot;:null}" fill="#000000" fill-rule="nonzero" stroke="none" stroke-width="1" stroke-linecap="butt" stroke-linejoin="miter" stroke-miterlimit="10" stroke-dasharray="" stroke-dashoffset="0" font-family="Handwriting" font-weight="normal" text-anchor="start" style="mix-blend-mode: normal"><tspan x="0" dy="0">Lorem ipsum dolor sit amet, consectetur adipiscing elit.</tspan><tspan x="0" dy="46.15px"> Aliquam vel sem vel ipsum convallis imperdiet ut et elit.</tspan><tspan x="0" dy="46.15px"> Nulla ut commodo mi, sit amet tristique ex. Suspendisse </tspan><tspan x="0" dy="46.15px">potenti.Praesent enim enim, laoreet et sapien sed, </tspan><tspan x="0" dy="46.15px">ultricies tempor nulla. Fusce euismod ipsum sem, non </tspan><tspan x="0" dy="46.15px">ultrices ipsum euismod quis.Praesent varius sodales urna,</tspan><tspan x="0" dy="46.15px"> ut interdum est tincidunt et. Suspendisse potenti. Mauris </tspan><tspan x="0" dy="46.15px">rutrum lectus et vestibulum congue. Pellentesque rutrum</tspan><tspan x="0" dy="46.15px">, justo sed varius fermentum, orci magna mollis diam, sed </tspan><tspan x="0" dy="46.15px">dignissim neque elit vel orci.</tspan></text><path d="M170.07105,155.29724l-0.74405,-12.02573h21.50098l-0.93005,12.11874c0,0 -5.94801,0.48832 -9.06544,0.4737c-3.45647,-0.01622 -10.76145,-0.5667 -10.76145,-0.5667z" fill="#222222" stroke="none" stroke-width="0" stroke-linecap="butt"/></g></g></svg>